HIERARCHY
ROOT Hips
{
 OFFSET 0.000000 0.000000 0.000000
 CHANNELS 6 Xposition Yposition Zposition Yrotation Xrotation Zrotation
 JOINT Chest
 {
  OFFSET 0.000000 9.585900 0.002600
  CHANNELS 3 Yrotation Xrotation Zrotation
  JOINT Chest2
  {
   OFFSET 0.000000 9.601200 -0.005300
   CHANNELS 3 Yrotation Xrotation Zrotation
   JOINT Chest3
   {
    OFFSET 0.000000 9.561800 0.000000
    CHANNELS 3 Yrotation Xrotation Zrotation
    JOINT Chest4
    {
     OFFSET 0.000000 9.552100 0.000000
     CHANNELS 3 Yrotation Xrotation Zrotation
     JOINT Neck
     {
      OFFSET 0.000000 14.453000 0.000000
      CHANNELS 3 Yrotation Xrotation Zrotation
      JOINT Head
      {
       OFFSET 0.000000 8.936500 -0.011300
       CHANNELS 3 Yrotation Xrotation Zrotation
       End Site
       {
        OFFSET 0.000000 17.073600 -0.006000
       }
      }
     }
     JOINT RightCollar
     {
      OFFSET -2.921100 9.558500 0.000000
      CHANNELS 3 Yrotation Xrotation Zrotation
      JOINT RightShoulder
      {
       OFFSET -13.519700 0.000000 0.000000
       CHANNELS 3 Yrotation Xrotation Zrotation
       JOINT RightElbow
       {
        OFFSET 0.000000 -29.696600 0.000000
        CHANNELS 3 Yrotation Xrotation Zrotation
        JOINT RightWrist
        {
         OFFSET 0.000000 -24.004700 0.000000
         CHANNELS 3 Yrotation Xrotation Zrotation
         End Site
         {
          OFFSET 0.000000 -17.728500 0.000000
         }
        }
       }
      }
     }
     JOINT LeftCollar
     {
      OFFSET 2.921100 9.558500 0.000000
      CHANNELS 3 Yrotation Xrotation Zrotation
      JOINT LeftShoulder
      {
       OFFSET 13.519700 0.000000 0.000000
       CHANNELS 3 Yrotation Xrotation Zrotation
       JOINT LeftElbow
       {
        OFFSET 0.000000 -29.696600 0.000000
        CHANNELS 3 Yrotation Xrotation Zrotation
        JOINT LeftWrist
        {
         OFFSET 0.000000 -24.004700 0.000000
         CHANNELS 3 Yrotation Xrotation Zrotation
         End Site
         {
          OFFSET 0.000000 -17.728500 0.000000
         }
        }
       }
      }
     }
    }
   }
  }
 }
 JOINT RightHip
 {
  OFFSET -7.771700 -0.012900 -0.001300
  CHANNELS 3 Yrotation Xrotation Zrotation
  JOINT RightKnee
  {
   OFFSET 0.000000 -40.869800 0.001200
   CHANNELS 3 Yrotation Xrotation Zrotation
   JOINT RightAnkle
   {
    OFFSET 0.000000 -39.717900 0.002100
    CHANNELS 3 Yrotation Xrotation Zrotation
    JOINT RightToe
    {
     OFFSET 0.000000 -4.965400 11.033500
     CHANNELS 3 Yrotation Xrotation Zrotation
     End Site
     {
      OFFSET 0.000000 -1.423100 5.872300
     }
    }
   }
  }
 }
 JOINT LeftHip
 {
  OFFSET 7.771700 -0.012900 -0.001300
  CHANNELS 3 Yrotation Xrotation Zrotation
  JOINT LeftKnee
  {
   OFFSET 0.000000 -40.869800 0.001200
   CHANNELS 3 Yrotation Xrotation Zrotation
   JOINT LeftAnkle
   {
    OFFSET 0.000000 -39.717900 0.002100
    CHANNELS 3 Yrotation Xrotation Zrotation
    JOINT LeftToe
    {
     OFFSET 0.000000 -4.965400 11.033500
     CHANNELS 3 Yrotation Xrotation Zrotation
     End Site
     {
      OFFSET 0.000000 -1.423100 5.872300
     }
    }
   }
  }
 }
}
MOTION
Frames: 5
Frame Time: 0.008333
0.000000 85.388000 0.000000 0.000000 -5.767877 0.000000 0.000000 11.653817 0.000000 0.000000 -5.885947 0.000000 0.000000 -0.000000 0.000000 0.000000 -0.000000 0.000000 0.000000 12.528835 0.000000 0.000000 0.711642 0.000000 0.000000 -0.000000 0.000000 0.000000 0.000000 -90.000000 0.000000 -2.309062 0.000000 0.000000 2.309062 0.000000 0.000000 -0.000000 0.000000 0.000000 -0.000000 90.000000 0.000000 -2.309062 0.000000 0.000000 2.309062 0.000000 0.000000 8.520406 0.000000 0.000000 1.905762 0.000000 -0.000000 -4.658285 0.000000 0.000000 -0.000000 0.000000 0.000000 8.520406 0.000000 0.000000 1.905762 0.000000 -0.000000 -4.658285 0.000000 0.000000 -0.000000 0.000000
-92.129765 43.963056 16.847728 174.468192 -22.968228 0.029191 -0.086938 17.243198 3.266673 -0.064841 1.862704 0.407970 -0.100504 3.095976 0.677224 -0.143577 15.090932 3.312529 -11.526580 17.455055 -5.021217 -11.585671 -6.742784 -2.887347 21.012260 -1.989603 -9.668023 22.931873 -44.307907 -47.707558 25.806750 -76.143012 -27.601764 -5.113479 -10.161027 -49.503205 -8.421901 -3.520713 -3.597759 5.207672 14.922728 25.175796 -122.774299 -53.468382 96.814339 -8.418896 -11.115719 -2.801094 -1.668318 -69.373537 12.437253 -149.738465 68.980181 -148.523877 -10.436186 -24.456911 8.194198 0.267090 -0.754224 0.156613 4.803960 -52.447670 -1.035885 176.639751 58.226678 175.209401 -3.111551 -41.994459 3.223886 0.110438 0.261517 0.109961
-92.138112 43.962764 16.849883 174.502211 -22.966905 0.009725 -0.078519 17.253521 3.287350 -0.064359 1.864875 0.409774 -0.099621 3.099389 0.680086 -0.137549 15.096979 3.325013 -11.527498 17.453832 -5.010988 -11.593728 -6.747828 -2.878977 21.021278 -1.999750 -9.679649 22.872516 -44.224017 -47.756347 26.755442 -76.212274 -28.507336 -5.057790 -10.263800 -49.402019 -8.453480 -3.546181 -3.599227 5.221386 14.942749 25.216123 -122.782765 -53.514698 96.794690 -8.401483 -11.110760 -2.731718 -1.579970 -69.375901 12.353343 -149.642898 68.975417 -148.410776 -10.446568 -24.417450 8.196660 0.279288 -0.779172 0.174851 4.836741 -52.461216 -1.074163 176.619006 58.222305 175.215814 -3.128865 -41.981027 3.242703 0.110472 0.253545 0.100606
-92.148180 43.960899 16.858323 174.501230 -22.926659 0.003553 -0.057797 17.219274 3.300597 -0.056917 1.870301 0.411614 -0.092342 3.107895 0.683671 -0.132083 15.104204 3.337381 -11.516161 17.451640 -5.002468 -11.574718 -6.747907 -2.868103 21.003067 -2.020857 -9.694547 22.849585 -44.179483 -47.775923 27.843385 -76.217504 -29.530414 -4.988908 -10.367092 -49.293461 -8.457537 -3.558106 -3.600209 5.220019 14.953710 25.245057 -122.796139 -53.552891 96.777628 -8.386122 -11.105186 -2.665927 -1.554360 -69.416568 12.343175 -149.528335 68.972925 -148.317610 -10.384138 -24.430783 8.215842 0.238148 -0.746322 0.159531 4.899053 -52.513525 -1.100921 176.647706 58.224098 175.246386 -3.114432 -41.957886 3.276390 0.087678 0.241057 0.083486
-92.153529 43.962414 16.862976 174.518025 -22.915496 -0.039176 -0.046740 17.214346 3.343938 -0.063964 1.867463 0.411626 -0.072893 3.124481 0.689207 -0.142654 15.097744 3.340674 -11.441634 17.490650 -4.979475 -11.570649 -6.762877 -2.852238 21.038688 -2.004060 -9.694926 22.786180 -44.078125 -47.823574 29.051722 -76.249895 -30.724735 -4.908335 -10.470969 -49.191462 -8.411568 -3.521865 -3.594658 5.180203 14.929007 25.263039 -122.806983 -53.598400 96.757592 -8.372478 -11.096024 -2.609085 -1.580749 -69.430694 12.379139 -149.422968 68.975986 -148.217361 -10.307298 -24.340641 8.167805 0.203618 -0.808697 0.201409 4.899213 -52.539528 -1.075129 176.654512 58.220928 175.270981 -3.122605 -41.945576 3.274410 0.085620 0.236423 0.105455
